<?xml version="1.0" encoding="utf-8"?>
<!-- Svg Vector Icons : http://www.onlinewebfonts.com/icon -->
<!DOCTYPE svg PUBLIC "-//W3C//DTD SVG 1.1//EN" "http://www.w3.org/Graphics/SVG/1.1/DTD/svg11.dtd">
<svg version="1.1" xmlns="http://www.w3.org/2000/svg" xmlns:xlink="http://www.w3.org/1999/xlink" x="0px" y="0px" viewBox="0 0 1000 1000" enable-background="new 0 0 1000 1000" xml:space="preserve">
<metadata> Svg Vector Icons : http://www.onlinewebfonts.com/icon </metadata>
<g><path d="M500,990C229.4,990,10,770.6,10,500C10,229.4,229.4,10,500,10s490,219.4,490,490C990,770.6,770.6,990,500,990z M500,84.7C270.7,84.7,84.7,270.7,84.7,500S270.7,915.3,500,915.3S915.3,729.3,915.3,500S729.3,84.7,500,84.7z M414.7,823.1C324.7,712.1,218.9,627.4,144.8,601l174.6-105.8l84.7,164c0,0,137.6-333.3,354.5-444.3c-5.3,79.4-26.5,148.1,10.6,232.8C673.9,468.7,478.2,706.8,414.7,823.1z"/></g>
</svg>